# xmcd
#
# Track frame offsets:
#	150
#	19369
#	37660
#	55112
#	73990
#	93299
#	109944
#	129605
#	149552
#	166498
#	186435
#	206756
#	224970
#	243267
#
# Disc length: 3451 seconds
#
# Revision: 1
# Processed by: cddbd v1.5.1PL2 Copyright (c) Steve Scherf et al.
# Submitted via: EasyCDDAExtractor 6.5.7.1
#
DISCID=de0d790e
DTITLE=Various Artist - IRONIA
DYEAR=2005
DGENRE=Latin
TTITLE0=Andy Andy - QUE IRONIA (BACHATA)
TTITLE1=Andy Andy - A QUIEN LE IMPORTA (BACHATA)
TTITLE2=Andy Andy - MALA SUERTE EN EL AMOR
TTITLE3=Andy Andy - PARA NO VERTE MAS
TTITLE4=ANDY ANDY - VOY A QUERERLA
TTITLE5=Andy Andy - LLEGO TU HORA
TTITLE6=Andy Andy - ME EXTRAÑARAS
TTITLE7=Andy Andy - TE QUIERO TANTO
TTITLE8=Andy Andy - SENTADO EN EL MUELLE DE LA BAHIA
TTITLE9=Andy Andy - ASI ES EL AMOR
TTITLE10=Andy Andy - MENTIA
TTITLE11=Andy Andy - QUE IRONIA (BALADA)
TTITLE12=Andy Andy - A QUIEN LE IMPORTA (BALADA)
TTITLE13=Andy Andy - QUE IRONIA (REGGAETON)
EXTD=
EXTT0=
EXTT1=
EXTT2=
EXTT3=
EXTT4=
EXTT5=
EXTT6=
EXTT7=
EXTT8=
EXTT9=
EXTT10=
EXTT11=
EXTT12=
EXTT13=
PLAYORDER=
